<svg id="Capa_1" enable-background="new 0 0 512 512" height="512" viewBox="0 0 512 512" width="512" xmlns="http://www.w3.org/2000/svg"><g><path d="m487.206 133.365 20.4-20.4c5.858-5.858 5.858-15.355 0-21.213l-33.073-33.073 33.073-33.072c5.858-5.858 5.858-15.355 0-21.213-5.857-5.858-15.355-5.858-21.213 0l-33.073 33.072-33.071-33.072c-5.857-5.858-15.355-5.858-21.213 0l-20.4 20.4z"/><path d="m24.794 378.636-20.4 20.4c-5.858 5.858-5.858 15.355 0 21.213l33.073 33.073-33.073 33.072c-5.858 5.858-5.858 15.355 0 21.213 2.928 2.929 6.767 4.393 10.606 4.393s7.678-1.464 10.606-4.394l33.073-33.072 33.073 33.072c2.929 2.929 6.768 4.394 10.606 4.394s7.678-1.464 10.606-4.394l20.4-20.4z"/><path d="m485.101 173.686-146.786-146.787c-11.696-11.697-30.73-11.698-42.426 0l-34.787 34.787c-11.697 11.697-11.697 30.729 0 42.426l62.787 62.787-156.99 156.99-62.787-62.787c-11.696-11.697-30.73-11.696-42.426 0l-34.787 34.787c-11.697 11.697-11.697 30.729 0 42.426l146.787 146.787c5.848 5.849 13.531 8.773 21.213 8.773s15.365-2.924 21.213-8.773l34.787-34.787c11.697-11.697 11.697-30.729 0-42.426l-62.787-62.787 156.99-156.99 62.787 62.787c5.848 5.849 13.531 8.773 21.213 8.773 7.683 0 15.365-2.924 21.213-8.773l34.787-34.787c11.696-11.697 11.696-30.729-.001-42.426z"/></g></svg>